<svg width="30" height="30" viewBox="0 0 30 30" fill="none" xmlns="http://www.w3.org/2000/svg">
<rect width="30" height="30" rx="5" fill="#75ADD6"/>
<rect x="8" y="7" width="15" height="4.41176" rx="1" fill="white"/>
<rect x="8" y="12.2941" width="15" height="4.41176" rx="1" fill="white"/>
<rect x="8" y="17.5883" width="15" height="4.41176" rx="1" fill="white"/>
<path d="M20.75 8.91108C20.75 8.92992 20.7465 8.94853 20.7397 8.96554C20.7328 8.98256 20.7228 8.99755 20.7104 9.00942L20.0676 9.61835C20.0484 9.6369 20.0243 9.64703 19.9995 9.64703C19.9747 9.64703 19.9507 9.6369 19.9315 9.61835L19.2887 8.98799C19.2668 8.96659 19.2531 8.93584 19.2505 8.9025C19.2478 8.86916 19.2566 8.83597 19.2748 8.81022C19.293 8.78448 19.3191 8.76829 19.3474 8.76521C19.3757 8.76214 19.404 8.77244 19.4258 8.79384L20.0001 9.35738L20.5743 8.81275C20.59 8.79733 20.6092 8.78754 20.6295 8.78453C20.6498 8.78152 20.6704 8.78541 20.6889 8.79576C20.7074 8.8061 20.7229 8.82246 20.7338 8.8429C20.7446 8.86334 20.7502 8.887 20.75 8.91108Z" fill="#75ADD6"/>
<path d="M20.75 14.2053C20.75 14.2241 20.7465 14.2427 20.7397 14.2597C20.7328 14.2768 20.7228 14.2917 20.7104 14.3036L20.0676 14.9125C20.0484 14.9311 20.0243 14.9412 19.9995 14.9412C19.9747 14.9412 19.9507 14.9311 19.9315 14.9125L19.2887 14.2822C19.2668 14.2608 19.2531 14.23 19.2505 14.1967C19.2478 14.1634 19.2566 14.1302 19.2748 14.1044C19.293 14.0787 19.3191 14.0625 19.3474 14.0594C19.3757 14.0563 19.404 14.0666 19.4258 14.088L20.0001 14.6516L20.5743 14.1069C20.59 14.0915 20.6092 14.0817 20.6295 14.0787C20.6498 14.0757 20.6704 14.0796 20.6889 14.0899C20.7074 14.1003 20.7229 14.1167 20.7338 14.1371C20.7446 14.1575 20.7502 14.1812 20.75 14.2053Z" fill="#75ADD6"/>
<path d="M20.75 19.4993C20.75 19.5182 20.7465 19.5368 20.7397 19.5538C20.7328 19.5708 20.7228 19.5858 20.7104 19.5977L20.0676 20.2066C20.0484 20.2252 20.0243 20.2353 19.9995 20.2353C19.9747 20.2353 19.9507 20.2252 19.9315 20.2066L19.2887 19.5762C19.2668 19.5548 19.2531 19.5241 19.2505 19.4908C19.2478 19.4574 19.2566 19.4242 19.2748 19.3985C19.293 19.3727 19.3191 19.3565 19.3474 19.3535C19.3757 19.3504 19.404 19.3607 19.4258 19.3821L20.0001 19.9456L20.5743 19.401C20.59 19.3856 20.6092 19.3758 20.6295 19.3728C20.6498 19.3698 20.6704 19.3737 20.6889 19.384C20.7074 19.3944 20.7229 19.4107 20.7338 19.4312C20.7446 19.4516 20.7502 19.4753 20.75 19.4993Z" fill="#75ADD6"/>
<line x1="9.5" y1="9.39703" x2="15.5" y2="9.39703" stroke="#75ADD6" stroke-width="0.5"/>
<line x1="9.5" y1="14.6912" x2="15.5" y2="14.6912" stroke="#75ADD6" stroke-width="0.5"/>
<line x1="9.5" y1="19.9853" x2="15.5" y2="19.9853" stroke="#75ADD6" stroke-width="0.5"/>
</svg>
