<svg width="30" height="30" viewBox="0 0 30 30" fill="none" xmlns="http://www.w3.org/2000/svg">
<rect width="30" height="30" rx="5" fill="#D67575"/>
<path fill-rule="evenodd" clip-rule="evenodd" d="M15.5 7C11.358 7 8 10.358 8 14.5C8 18.642 11.358 22 15.5 22C19.642 22 23 18.642 23 14.5C23 10.358 19.642 7 15.5 7ZM16.1818 11.0909C16.1818 10.9101 16.11 10.7367 15.9821 10.6088C15.8543 10.4809 15.6808 10.4091 15.5 10.4091C15.3192 10.4091 15.1457 10.4809 15.0179 10.6088C14.89 10.7367 14.8182 10.9101 14.8182 11.0909V15.1818C14.8182 15.3626 14.89 15.5361 15.0179 15.6639C15.1457 15.7918 15.3192 15.8636 15.5 15.8636C15.6808 15.8636 15.8543 15.7918 15.9821 15.6639C16.11 15.5361 16.1818 15.3626 16.1818 15.1818V11.0909ZM16.1818 17.5682C16.1818 17.3874 16.11 17.2139 15.9821 17.0861C15.8543 16.9582 15.6808 16.8864 15.5 16.8864C15.3192 16.8864 15.1457 16.9582 15.0179 17.0861C14.89 17.2139 14.8182 17.3874 14.8182 17.5682V17.9091C14.8182 18.0899 14.89 18.2633 15.0179 18.3912C15.1457 18.5191 15.3192 18.5909 15.5 18.5909C15.6808 18.5909 15.8543 18.5191 15.9821 18.3912C16.11 18.2633 16.1818 18.0899 16.1818 17.9091V17.5682Z" fill="white"/>
</svg>
