<svg width="30" height="30" viewBox="0 0 30 30" fill="none" xmlns="http://www.w3.org/2000/svg">
<rect width="30" height="30" rx="5" fill="#D6C075"/>
<path d="M21.9486 9.09863C22.2709 9.30294 22.5364 9.58548 22.7202 9.91996C22.9041 10.2544 23.0003 10.63 23 11.0117V18.3372C23 20.3605 21.3604 22 19.3372 22H12.0116C11.6297 22.0003 11.2539 21.9039 10.9192 21.72C10.5845 21.536 10.3017 21.2705 10.0972 20.9479L10.1823 20.9521L10.2674 20.9535H19.3372C20.031 20.9535 20.6965 20.6779 21.1872 20.1872C21.6778 19.6966 21.9534 19.0311 21.9534 18.3372V9.26747C21.9534 9.21116 21.9518 9.15486 21.9486 9.09863ZM11.8372 14.3256C11.6521 14.3256 11.4747 14.3991 11.3438 14.53C11.213 14.6608 11.1395 14.8382 11.1395 15.0233C11.1395 15.2083 11.213 15.3858 11.3438 15.5166C11.4747 15.6475 11.6521 15.721 11.8372 15.721C12.0222 15.721 12.1997 15.6475 12.3305 15.5166C12.4613 15.3858 12.5348 15.2083 12.5348 15.0233C12.5348 14.8382 12.4613 14.6608 12.3305 14.53C12.1997 14.3991 12.0222 14.3256 11.8372 14.3256Z" fill="white"/>
<path d="M18.9884 7H10.2674C9.66608 7 9.08935 7.23889 8.66412 7.66412C8.23889 8.08935 8 8.66608 8 9.26744V17.9884C8 18.2861 8.05865 18.581 8.1726 18.8561C8.28655 19.1312 8.45357 19.3811 8.66412 19.5917C8.87467 19.8022 9.12463 19.9693 9.39973 20.0832C9.67483 20.1972 9.96968 20.2558 10.2674 20.2558H18.9884C19.2861 20.2558 19.581 20.1972 19.8561 20.0832C20.1312 19.9693 20.3811 19.8022 20.5917 19.5917C20.8022 19.3811 20.9693 19.1312 21.0832 18.8561C21.1972 18.581 21.2558 18.2861 21.2558 17.9884V9.26744C21.2558 8.96968 21.1972 8.67483 21.0832 8.39973C20.9693 8.12463 20.8022 7.87467 20.5917 7.66412C20.3811 7.45357 20.1312 7.28655 19.8561 7.1726C19.581 7.05865 19.2861 7 18.9884 7ZM10.093 15.0233C10.093 14.5607 10.2768 14.117 10.6039 13.7899C10.931 13.4628 11.3746 13.2791 11.8372 13.2791C12.2998 13.2791 12.7434 13.4628 13.0705 13.7899C13.3976 14.117 13.5814 14.5607 13.5814 15.0233C13.5814 15.4858 13.3976 15.9295 13.0705 16.2566C12.7434 16.5837 12.2998 16.7674 11.8372 16.7674C11.3746 16.7674 10.931 16.5837 10.6039 16.2566C10.2768 15.9295 10.093 15.4858 10.093 15.0233ZM14.9767 14.8488C14.9767 14.7101 15.0319 14.577 15.13 14.4788C15.2281 14.3807 15.3612 14.3256 15.5 14.3256H18.9884C19.1271 14.3256 19.2602 14.3807 19.3584 14.4788C19.4565 14.577 19.5116 14.7101 19.5116 14.8488C19.5116 14.9876 19.4565 15.1207 19.3584 15.2188C19.2602 15.317 19.1271 15.3721 18.9884 15.3721H15.5C15.3612 15.3721 15.2281 15.317 15.13 15.2188C15.0319 15.1207 14.9767 14.9876 14.9767 14.8488ZM10.093 11.3605C10.093 11.2217 10.1482 11.0886 10.2463 10.9905C10.3444 10.8923 10.4775 10.8372 10.6163 10.8372H18.9884C19.1271 10.8372 19.2602 10.8923 19.3584 10.9905C19.4565 11.0886 19.5116 11.2217 19.5116 11.3605C19.5116 11.4992 19.4565 11.6323 19.3584 11.7305C19.2602 11.8286 19.1271 11.8837 18.9884 11.8837H10.6163C10.4775 11.8837 10.3444 11.8286 10.2463 11.7305C10.1482 11.6323 10.093 11.4992 10.093 11.3605Z" fill="white"/>
</svg>
