<svg width="38" height="38" viewBox="0 0 38 38" fill="none" xmlns="http://www.w3.org/2000/svg">
<circle cx="19" cy="19" r="17.5" stroke="#FF7B33" stroke-width="3"/>
<path d="M20.543 9.9375L20.0391 21.5977H16.8281L16.3242 9.9375H20.543ZM16.2188 25.2305C16.2188 24.668 16.4219 24.1992 16.8281 23.8242C17.2344 23.4414 17.7617 23.25 18.4102 23.25C19.0586 23.25 19.582 23.4414 19.9805 23.8242C20.3867 24.1992 20.5898 24.668 20.5898 25.2305C20.5898 25.793 20.3867 26.2656 19.9805 26.6484C19.582 27.0234 19.0586 27.2109 18.4102 27.2109C17.7617 27.2109 17.2344 27.0234 16.8281 26.6484C16.4219 26.2656 16.2188 25.793 16.2188 25.2305Z" fill="#FF6B00"/>
</svg>
