<svg width="38" height="38" viewBox="0 0 38 38" fill="none" xmlns="http://www.w3.org/2000/svg">
<circle cx="19" cy="19" r="17.5" stroke="#00F0FF" stroke-width="3"/>
<path d="M22.0399 22.6578C21.9907 22.6248 21.9355 22.6019 21.8774 22.5905C21.8194 22.5791 21.7596 22.5794 21.7016 22.5914C21.6437 22.6034 21.5887 22.6268 21.5399 22.6604C21.4912 22.6939 21.4496 22.7369 21.4176 22.7867C20.988 23.423 20.4617 23.9883 19.8576 24.4622C19.711 24.5734 19.1643 24.9956 18.9332 24.9067C18.7732 24.8578 18.8665 24.5422 18.8976 24.4089L19.1332 23.7111C19.231 23.4267 20.9332 18.3778 21.1199 17.8C21.3954 16.9556 21.2754 16.1245 20.0176 16.3245C19.6754 16.36 16.2043 16.8089 16.1421 16.8134C16.0837 16.8172 16.0267 16.8324 15.9742 16.8582C15.9217 16.8841 15.8749 16.92 15.8363 16.964C15.7977 17.0079 15.7681 17.059 15.7493 17.1144C15.7305 17.1698 15.7227 17.2283 15.7265 17.2867C15.7303 17.3451 15.7456 17.4021 15.7714 17.4546C15.7973 17.507 15.8332 17.5539 15.8771 17.5925C15.9211 17.6311 15.9722 17.6606 16.0276 17.6795C16.083 17.6983 16.1415 17.706 16.1999 17.7022C16.1999 17.7022 17.5332 17.5289 17.6799 17.5156C17.755 17.5082 17.8306 17.5228 17.8977 17.5575C17.9647 17.5922 18.0203 17.6456 18.0576 17.7111C18.1382 17.9601 18.1271 18.2296 18.0265 18.4711C17.911 18.9156 16.0843 24.0622 16.0265 24.36C15.9646 24.6092 15.9818 24.8715 16.0757 25.1105C16.1697 25.3494 16.3358 25.5532 16.551 25.6934C16.9548 25.9625 17.4355 26.092 17.9199 26.0622C18.3908 26.0565 18.8565 25.963 19.2932 25.7867C20.3999 25.3422 21.5554 24.16 22.1643 23.2311C22.2167 23.1368 22.233 23.0265 22.2101 22.921C22.1872 22.8155 22.1267 22.7219 22.0399 22.6578Z" fill="#00F0FF"/>
</svg>
