<svg width="38" height="38" viewBox="0 0 38 38" fill="none" xmlns="http://www.w3.org/2000/svg">
<circle cx="19" cy="19" r="17.5" stroke="#FF0000" stroke-width="3"/>
<path d="M19.575 18.575C19.2917 18.575 19.0543 18.479 18.863 18.287C18.671 18.0957 18.575 17.8583 18.575 17.575V11.575C18.575 11.2917 18.671 11.054 18.863 10.862C19.0543 10.6707 19.2917 10.575 19.575 10.575C19.8583 10.575 20.096 10.6707 20.288 10.862C20.4793 11.054 20.575 11.2917 20.575 11.575V15.175L26.475 9.275C26.6583 9.09167 26.8917 9 27.175 9C27.4583 9 27.6917 9.09167 27.875 9.275C28.0583 9.45833 28.15 9.69167 28.15 9.975C28.15 10.2583 28.0583 10.4917 27.875 10.675L21.975 16.575H25.575C25.8583 16.575 26.0957 16.6707 26.287 16.862C26.479 17.054 26.575 17.2917 26.575 17.575C26.575 17.8583 26.479 18.0957 26.287 18.287C26.0957 18.479 25.8583 18.575 25.575 18.575H19.575ZM9.275 27.875C9.09167 27.6917 9 27.4583 9 27.175C9 26.8917 9.09167 26.6583 9.275 26.475L15.175 20.575H11.575C11.2917 20.575 11.054 20.479 10.862 20.287C10.6707 20.0957 10.575 19.8583 10.575 19.575C10.575 19.2917 10.6707 19.054 10.862 18.862C11.054 18.6707 11.2917 18.575 11.575 18.575H17.575C17.8583 18.575 18.096 18.6707 18.288 18.862C18.4793 19.054 18.575 19.2917 18.575 19.575V25.575C18.575 25.8583 18.4793 26.0957 18.288 26.287C18.096 26.479 17.8583 26.575 17.575 26.575C17.2917 26.575 17.0543 26.479 16.863 26.287C16.671 26.0957 16.575 25.8583 16.575 25.575V21.975L10.675 27.875C10.4917 28.0583 10.2583 28.15 9.975 28.15C9.69167 28.15 9.45833 28.0583 9.275 27.875Z" fill="#FF0000"/>
</svg>
