<svg width="30" height="30" viewBox="0 0 30 30" fill="none" xmlns="http://www.w3.org/2000/svg">
<rect width="30" height="30" rx="5" fill="#75D6AD"/>
<path d="M21.6875 18.7209L21.5459 18.5959C21.144 18.2378 20.7922 17.8271 20.5 17.375C20.181 16.7511 19.9897 16.0697 19.9375 15.3709V13.3125C19.9358 13.0625 19.9136 12.8131 19.8709 12.5667C19.1651 12.4216 18.5311 12.0371 18.0763 11.4783C17.6215 10.9194 17.3737 10.2206 17.375 9.50004V9.23754C16.94 9.02345 16.4726 8.88267 15.9917 8.82087V8.29587C15.9917 8.14835 15.9331 8.00686 15.8288 7.90255C15.7245 7.79823 15.583 7.73962 15.4355 7.73962C15.2879 7.73962 15.1464 7.79823 15.0421 7.90255C14.9378 8.00686 14.8792 8.14835 14.8792 8.29587V8.84171C13.8024 8.9936 12.8169 9.52993 12.1047 10.3517C11.3925 11.1734 11.0016 12.2251 11.0042 13.3125V15.3709C10.952 16.0697 10.7608 16.7511 10.4417 17.375C10.1546 17.826 9.80846 18.2366 9.41254 18.5959L9.27087 18.7209V19.8959H21.6875V18.7209Z" fill="white"/>
<path d="M20.5 11.5833C21.6506 11.5833 22.5834 10.6506 22.5834 9.49996C22.5834 8.34937 21.6506 7.41663 20.5 7.41663C19.3494 7.41663 18.4167 8.34937 18.4167 9.49996C18.4167 10.6506 19.3494 11.5833 20.5 11.5833Z" fill="white"/>
</svg>
