<svg width="30" height="30" viewBox="0 0 30 30" fill="none" xmlns="http://www.w3.org/2000/svg">
<rect width="30" height="30" rx="5" fill="#7577D6"/>
<path fill-rule="evenodd" clip-rule="evenodd" d="M10 17C8.89543 17 8 17.8954 8 19V20C8 21.1046 8.89543 22 10 22H21C22.1046 22 23 21.1046 23 20V19C23 17.8954 22.1046 17 21 17H10ZM21 19H15V20H21V19Z" fill="white"/>
<path fill-rule="evenodd" clip-rule="evenodd" d="M10 9C8.89543 9 8 9.89543 8 11V12C8 13.1046 8.89543 14 10 14H21C22.1046 14 23 13.1046 23 12V11C23 9.89543 22.1046 9 21 9H10ZM21 11H17V12H21V11Z" fill="white"/>
</svg>
