<svg width="30" height="30" viewBox="0 0 30 30" fill="none" xmlns="http://www.w3.org/2000/svg">
<rect width="30" height="30" rx="5" fill="#75ADD6"/>
<path d="M8 12.4375C8 10.9954 8.57288 9.61234 9.59261 8.59261C10.6123 7.57288 11.9954 7 13.4375 7H16.0625C16.5437 7 17.0142 7.14244 17.4146 7.40938C17.815 7.67631 18.1274 8.05579 18.3125 8.5H14.1875C12.9443 8.5 11.752 8.99386 10.8729 9.87294C9.99386 10.752 9.5 11.9443 9.5 13.1875V17.3125C9.05579 17.1274 8.67631 16.815 8.40938 16.4146C8.14244 16.0142 8 15.5437 8 15.0625V12.4375ZM10.25 13.1875C10.25 11.0125 12.0125 9.25 14.1875 9.25H18.3125C18.7937 9.25 19.2642 9.39244 19.6646 9.65938C20.065 9.92631 20.3774 10.3058 20.5625 10.75H14.9375C14.0921 10.75 13.2814 11.0858 12.6836 11.6836C12.0858 12.2814 11.75 13.0921 11.75 13.9375V19.5625C11.3058 19.3774 10.9263 19.065 10.6594 18.6646C10.3924 18.2642 10.25 17.7937 10.25 17.3125V13.1875ZM14.9375 11.5C14.291 11.5 13.671 11.7568 13.2139 12.2139C12.7568 12.671 12.5 13.291 12.5 13.9375V19.5625C12.5 19.8826 12.563 20.1996 12.6855 20.4953C12.808 20.791 12.9876 21.0597 13.2139 21.2861C13.4403 21.5124 13.709 21.692 14.0047 21.8145C14.3004 21.937 14.6174 22 14.9375 22H20.5625C20.8826 22 21.1996 21.937 21.4953 21.8145C21.791 21.692 22.0597 21.5124 22.2861 21.2861C22.5124 21.0597 22.692 20.791 22.8145 20.4953C22.937 20.1996 23 19.8826 23 19.5625V13.9375C23 13.6174 22.937 13.3004 22.8145 13.0047C22.692 12.709 22.5124 12.4403 22.2861 12.2139C22.0597 11.9876 21.791 11.808 21.4953 11.6855C21.1996 11.563 20.8826 11.5 20.5625 11.5H14.9375Z" fill="white"/>
</svg>
