<svg width="30" height="30" viewBox="0 0 30 30" fill="none" xmlns="http://www.w3.org/2000/svg">
<rect width="30" height="30" rx="5" fill="#75D6AD"/>
<path d="M15.5 7C11.3645 7 8 10.3645 8 14.5C8 18.6355 11.3645 22 15.5 22C19.6355 22 23 18.6355 23 14.5C23 10.3645 19.6355 7 15.5 7ZM16.25 19H14.75V17.5H16.25V19ZM16.982 15.3363C16.835 15.4548 16.6932 15.568 16.5807 15.6805C16.2747 15.9858 16.2507 16.2632 16.25 16.2752V16.375H14.75V16.2498C14.75 16.1613 14.7717 15.367 15.5195 14.6193C15.6658 14.473 15.8472 14.3245 16.0378 14.17C16.5883 13.7238 16.9497 13.3982 16.9497 12.9497C16.941 12.5709 16.7844 12.2104 16.5133 11.9456C16.2422 11.6807 15.8782 11.5325 15.4993 11.5326C15.1203 11.5327 14.7564 11.6811 14.4854 11.9461C14.2145 12.2111 14.058 12.5716 14.0495 12.9505H12.5495C12.5495 11.3238 13.8733 10 15.5 10C17.1267 10 18.4505 11.3238 18.4505 12.9505C18.4505 14.1483 17.5662 14.863 16.982 15.3363Z" fill="white"/>
</svg>
